HIERARCHY
ROOT Hips
{
    OFFSET   0.000000   0.000000   0.000000
    CHANNELS 6 Xposition Yposition Zposition Zrotation Xrotation Yrotation
    JOINT Chest
    {
        OFFSET   0.000000   8.007240   0.000000
        CHANNELS 3 Zrotation Xrotation Yrotation
        JOINT Chest2
        {
            OFFSET   0.000000  22.077100   0.000000
            CHANNELS 3 Zrotation Xrotation Yrotation
            JOINT Neck
            {
                OFFSET   0.000000  23.254800   0.000000
                CHANNELS 3 Zrotation Xrotation Yrotation
                JOINT Head
                {
                    OFFSET   0.000000  14.370000   1.956600
                    CHANNELS 3 Zrotation Xrotation Yrotation
                    End Site
                    {
                        OFFSET   0.000000  19.566000   0.000000
                    }
                }
            }
            JOINT LeftCollar
            {
                OFFSET   3.911900  19.017000  -0.467064
                CHANNELS 3 Zrotation Xrotation Yrotation
                JOINT LeftShoulder
                {
                    OFFSET  10.383700   0.000000   0.000000
                    CHANNELS 3 Zrotation Xrotation Yrotation
                    JOINT LeftElbow
                    {
                        OFFSET  26.662100   0.001476   0.000517
                        CHANNELS 3 Zrotation Xrotation Yrotation
                        JOINT LeftWrist
                        {
                            OFFSET  28.869000  -0.000025  -0.000106
                            CHANNELS 3 Zrotation Xrotation Yrotation
                            JOINT LeftFinger0
                            {
                                OFFSET   2.044660  -2.323460   3.252850
                                CHANNELS 3 Zrotation Xrotation Yrotation
                                JOINT LeftFinger01
                                {
                                    OFFSET   3.088130   0.000000   0.000000
                                    CHANNELS 3 Zrotation Xrotation Yrotation
                                    JOINT LeftFinger02
                                    {
                                        OFFSET   2.639460   0.000000   0.000000
                                        CHANNELS 3 Zrotation Xrotation Yrotation
                                        End Site
                                        {
                                            OFFSET   2.582190   0.000000   0.000000
                                        }
                                    }
                                }
                            }
                            JOINT LeftFinger1
                            {
                                OFFSET   8.364480   0.000000   3.252850
                                CHANNELS 3 Zrotation Xrotation Yrotation
                                JOINT LeftFinger11
                                {
                                    OFFSET   4.646930   0.000000   0.000000
                                    CHANNELS 3 Zrotation Xrotation Yrotation
                                    JOINT LeftFinger12
                                    {
                                        OFFSET   2.323460   0.000000   0.000000
                                        CHANNELS 3 Zrotation Xrotation Yrotation
                                        End Site
                                        {
                                            OFFSET   2.273050   0.000000   0.000000
                                        }
                                    }
                                }
                            }
                            JOINT LeftFinger2
                            {
                                OFFSET   8.364490   0.000015   1.078090
                                CHANNELS 3 Zrotation Xrotation Yrotation
                                JOINT LeftFinger21
                                {
                                    OFFSET   5.111620   0.000000   0.000000
                                    CHANNELS 3 Zrotation Xrotation Yrotation
                                    JOINT LeftFinger22
                                    {
                                        OFFSET   2.788160   0.000016   0.000000
                                        CHANNELS 3 Zrotation Xrotation Yrotation
                                        End Site
                                        {
                                            OFFSET   2.727660   0.000000   0.000000
                                        }
                                    }
                                }
                            }
                            JOINT LeftFinger3
                            {
                                OFFSET   7.899780   0.000017  -1.078090
                                CHANNELS 3 Zrotation Xrotation Yrotation
                                JOINT LeftFinger31
                                {
                                    OFFSET   4.646930   0.000000   0.000000
                                    CHANNELS 3 Zrotation Xrotation Yrotation
                                    JOINT LeftFinger32
                                    {
                                        OFFSET   2.323470   0.000000   0.000000
                                        CHANNELS 3 Zrotation Xrotation Yrotation
                                        End Site
                                        {
                                            OFFSET   2.273050   0.000000   0.000000
                                        }
                                    }
                                }
                            }
                            JOINT LeftFinger4
                            {
                                OFFSET   7.435090   0.000000  -3.252850
                                CHANNELS 3 Zrotation Xrotation Yrotation
                                JOINT LeftFinger41
                                {
                                    OFFSET   3.717550   0.000000   0.000000
                                    CHANNELS 3 Zrotation Xrotation Yrotation
                                    JOINT LeftFinger42
                                    {
                                        OFFSET   1.858770   0.000000   0.000000
                                        CHANNELS 3 Zrotation Xrotation Yrotation
                                        End Site
                                        {
                                            OFFSET   1.818440   0.000000   0.000000
                                        }
                                    }
                                }
                            }
                        }
                    }
                }
            }
            JOINT RightCollar
            {
                OFFSET  -3.911900  19.017000  -0.467063
                CHANNELS 3 Zrotation Xrotation Yrotation
                JOINT RightShoulder
                {
                    OFFSET -10.383700   0.000019   0.000000
                    CHANNELS 3 Zrotation Xrotation Yrotation
                    JOINT RightElbow
                    {
                        OFFSET -26.662100   0.001175   0.000102
                        CHANNELS 3 Zrotation Xrotation Yrotation
                        JOINT RightWrist
                        {
                            OFFSET -28.869000   0.000016  -0.000079
                            CHANNELS 3 Zrotation Xrotation Yrotation
                            JOINT RightFinger0
                            {
                                OFFSET  -2.044660  -2.323490   3.252850
                                CHANNELS 3 Zrotation Xrotation Yrotation
                                JOINT RightFinger01
                                {
                                    OFFSET  -3.088140   0.000000   0.000000
                                    CHANNELS 3 Zrotation Xrotation Yrotation
                                    JOINT RightFinger02
                                    {
                                        OFFSET  -2.639460   0.000000   0.000000
                                        CHANNELS 3 Zrotation Xrotation Yrotation
                                        End Site
                                        {
                                            OFFSET  -2.582190   0.000000   0.000000
                                        }
                                    }
                                }
                            }
                            JOINT RightFinger1
                            {
                                OFFSET  -8.364480   0.000000   3.252850
                                CHANNELS 3 Zrotation Xrotation Yrotation
                                JOINT RightFinger11
                                {
                                    OFFSET  -4.646930   0.000000   0.000000
                                    CHANNELS 3 Zrotation Xrotation Yrotation
                                    JOINT RightFinger12
                                    {
                                        OFFSET  -2.323470   0.000000   0.000000
                                        CHANNELS 3 Zrotation Xrotation Yrotation
                                        End Site
                                        {
                                            OFFSET  -2.273050   0.000000   0.000000
                                        }
                                    }
                                }
                            }
                            JOINT RightFinger2
                            {
                                OFFSET  -8.364480   0.000000   1.078090
                                CHANNELS 3 Zrotation Xrotation Yrotation
                                JOINT RightFinger21
                                {
                                    OFFSET  -5.111620   0.000000   0.000000
                                    CHANNELS 3 Zrotation Xrotation Yrotation
                                    JOINT RightFinger22
                                    {
                                        OFFSET  -2.788160   0.000000   0.000000
                                        CHANNELS 3 Zrotation Xrotation Yrotation
                                        End Site
                                        {
                                            OFFSET  -2.727660   0.000000   0.000000
                                        }
                                    }
                                }
                            }
                            JOINT RightFinger3
                            {
                                OFFSET  -7.899780   0.000000  -1.078090
                                CHANNELS 3 Zrotation Xrotation Yrotation
                                JOINT RightFinger31
                                {
                                    OFFSET  -4.646930   0.000000   0.000000
                                    CHANNELS 3 Zrotation Xrotation Yrotation
                                    JOINT RightFinger32
                                    {
                                        OFFSET  -2.323470   0.000000   0.000000
                                        CHANNELS 3 Zrotation Xrotation Yrotation
                                        End Site
                                        {
                                            OFFSET  -2.273050   0.000000   0.000000
                                        }
                                    }
                                }
                            }
                            JOINT RightFinger4
                            {
                                OFFSET  -7.435090   0.000000  -3.252850
                                CHANNELS 3 Zrotation Xrotation Yrotation
                                JOINT RightFinger41
                                {
                                    OFFSET  -3.717550   0.000000   0.000000
                                    CHANNELS 3 Zrotation Xrotation Yrotation
                                    JOINT RightFinger42
                                    {
                                        OFFSET  -1.858770   0.000000   0.000000
                                        CHANNELS 3 Zrotation Xrotation Yrotation
                                        End Site
                                        {
                                            OFFSET  -1.818440   0.000000   0.000000
                                        }
                                    }
                                }
                            }
                        }
                    }
                }
            }
        }
    }
    JOINT LeftHip
    {
        OFFSET   9.783040   0.000000   0.000000
        CHANNELS 3 Zrotation Xrotation Yrotation
        JOINT LeftKnee
        {
            OFFSET   0.000032 -41.789100  -0.002222
            CHANNELS 3 Zrotation Xrotation Yrotation
            JOINT LeftAnkle
            {
                OFFSET   0.000087 -41.133200  -0.000135
                CHANNELS 3 Zrotation Xrotation Yrotation
                JOINT LeftToe
                {
                    OFFSET   0.000000  -6.358960  14.674500
                    CHANNELS 3 Zrotation Xrotation Yrotation
                    End Site
                    {
                        OFFSET   0.000000   0.000000   3.913200
                    }
                }
            }
        }
    }
    JOINT RightHip
    {
        OFFSET  -9.783040   0.000000   0.000000
        CHANNELS 3 Zrotation Xrotation Yrotation
        JOINT RightKnee
        {
            OFFSET   0.000047 -41.789100  -0.000896
            CHANNELS 3 Zrotation Xrotation Yrotation
            JOINT RightAnkle
            {
                OFFSET  -0.000117 -41.133300  -0.000248
                CHANNELS 3 Zrotation Xrotation Yrotation
                JOINT RightToe
                {
                    OFFSET   0.000000  -6.358970  14.674500
                    CHANNELS 3 Zrotation Xrotation Yrotation
                    End Site
                    {
                        OFFSET   0.000000   0.000000   3.913200
                    }
                }
            }
        }
    }
}
MOTION
Frames: 4
Frame Time:   0.016667
 -1.095680  89.529300  -0.541261  -2.469990  -6.317370  -0.837132   1.010720   3.764050  -0.740459   2.076970   7.514120  -1.552540   1.386320   0.396265  -0.008691   2.277780   0.802043   5.651080  -3.413910   0.932462   0.262714 -72.252600  16.915100  -6.196410  -2.639950  -7.687550  -8.762840   5.944260  -7.319820  10.243600  38.100900  22.386400 -62.623000 -16.015100   0.006372   0.004402  -3.007550   0.004465   0.002283 -31.703600   6.293440 -10.063300 -26.393400   0.003243  -0.000000 -18.475300   0.002224  -0.001216 -28.478600   3.146440  -5.778230 -37.914300  -0.003408  -0.001838 -25.250900   0.002225  -0.001232 -28.489100   0.156495  -0.288460 -35.958300   0.001220  -0.001618 -23.948300   0.001967  -0.001067 -34.768400   0.187333  -0.269982 -52.153200   0.001500  -0.012251 -34.734100   0.002098   0.000257   4.505620  -0.693130   6.275280  71.814100   8.237600   1.559070   1.893310  -3.742390   4.811600 -10.956400 -10.051000   3.480800 -51.912900  42.070400  82.503700  21.540400   0.005073  -0.001977   5.780280   0.003854  -0.000101  27.787700   3.965360   7.466150  22.947500  -0.001761   0.003651  16.063900  -0.003740   0.002436  23.579700  -0.647464  -1.480390  23.588200   0.010019  -0.002997  15.709700   0.005880  -0.000577  20.483400  -1.414140  -3.768620  20.530100   0.007657  -0.000741  13.673100   0.009623  -0.010180  25.948100  -1.910910  -3.910090  39.020200   0.012301  -0.000978  25.987400   0.003142  -0.007935   2.600860  10.586400   0.719947   1.269900   0.457542   7.965750  -2.694970  -3.635320   1.027880  -0.000000   0.000000  -0.000000   1.512810   4.582730  -1.729720   1.632880   4.881950  -6.422940  -4.385760  -2.102150  -5.196920   0.000000   0.000000  -0.000000
 -1.089250  89.529400  -0.524087  -2.467380  -6.349440  -0.809254   1.019080   3.781260  -0.735536   2.093690   7.548490  -1.543570   1.423290   0.381899  -0.008707   2.338500   0.773034   5.667700  -3.418850   0.920965   0.269922 -72.264300  16.969400  -6.238770  -2.630780  -7.696620  -8.763410   5.954550  -7.341300  10.204400  38.107500  22.391500 -62.621100 -16.037100   0.006372   0.004384  -3.018530   0.004468   0.002292 -31.706600   6.317500 -10.098500 -26.393500   0.003243   0.000000 -18.475300   0.002222  -0.001215 -28.475600   3.171130  -5.823420 -37.938200  -0.003407  -0.001836 -25.266900   0.002225  -0.001231 -28.488800   0.181192  -0.333915 -35.988000   0.001219  -0.001614 -23.968100   0.001968  -0.001065 -34.789000   0.213154  -0.306840 -52.184300   0.001501  -0.012254 -34.754800   0.002098   0.000258   4.508040  -0.715906   6.286700  71.794600   8.272730   1.588690   1.895360  -3.779580   4.765830 -10.963800 -10.046600   3.467860 -51.895000  42.067900  82.503900  21.550500   0.005073  -0.001961   5.780280   0.003850  -0.000104  27.801000   3.965360   7.466360  22.958100  -0.001762   0.003650  16.063700  -0.003736   0.002434  23.601400  -0.647464  -1.480350  23.609800   0.010018  -0.002985  15.724100   0.005889  -0.000558  20.506800  -1.414140  -3.768620  20.553400   0.007651  -0.000739  13.688600   0.009625  -0.010183  25.974000  -1.910910  -3.910090  39.058500   0.012295  -0.000975  26.012900   0.003149  -0.007928   2.607780  10.628500   0.731331   1.257090   0.447966   7.916270  -2.692340  -3.635770   1.037200  -0.000000   0.000000  -0.000000   1.514170   4.638890  -1.730950   1.633470   4.867790  -6.445830  -4.386780  -2.112090  -5.201380   0.000000   0.000000   0.000000
 -1.079930  89.529400  -0.494365  -2.462610  -6.405330  -0.759513   1.033810   3.808980  -0.728673   2.123240   7.603830  -1.531360   1.482800   0.358994  -0.008727   2.436280   0.726730   5.691310  -3.428130   0.904896   0.285565 -72.286100  17.049600  -6.307540  -2.617200  -7.705630  -8.766270   5.970300  -7.363220  10.146400  38.122200  22.403500 -62.617600 -16.059000   0.006371   0.004357  -3.029510   0.004471   0.002300 -31.709400   6.341500 -10.136000 -26.393500   0.003242  -0.000000 -18.475400   0.002216  -0.001211 -28.474200   3.195820  -5.868610 -37.962100  -0.003403  -0.001831 -25.282800   0.002224  -0.001226 -28.488400   0.215232  -0.396570 -36.030000   0.001219  -0.001602 -23.996000   0.001968  -0.001057 -34.817900   0.252750  -0.363393 -52.228000   0.001501  -0.012260 -34.783900   0.002097   0.000259   4.511880  -0.750668   6.305050  71.758500   8.327220   1.652070   1.902150  -3.845900   4.682070 -10.973100 -10.032400   3.447130 -51.874000  42.061500  82.502700  21.560600   0.005073  -0.001944   5.780280   0.003842  -0.000109  27.814100   3.965350   7.467880  22.968800  -0.001762   0.003644  16.063400  -0.003722   0.002432  23.623100  -0.647464  -1.480030  23.631400   0.010015  -0.002952  15.738500   0.005913  -0.000512  20.539100  -1.414140  -3.768620  20.585700   0.007633  -0.000736  13.710100   0.009632  -0.010189  26.006100  -1.910910  -3.910090  39.107100   0.012279  -0.000970  26.045300   0.003168  -0.007911   2.619290  10.695700   0.748067   1.237020   0.438423   7.833660  -2.689330  -3.638950   1.051760   0.000000   0.000000   0.000000   1.516930   4.734430  -1.734790   1.634610   4.846200  -6.484970  -4.388450  -2.130750  -5.209920  -0.000000   0.000000   0.000000
 -1.075370  89.529400  -0.468228  -2.460510  -6.454070  -0.712706   1.047230   3.828150  -0.725835   2.150360   7.642030  -1.527310   1.526800   0.343588  -0.008731   2.508580   0.695462   5.699530  -3.438120   0.899808   0.305237 -72.307900  17.088500  -6.359230  -2.611890  -7.694790  -8.786100   5.979210  -7.357980  10.115400  38.139900  22.422000 -62.609800 -16.044400   0.006367   0.004341  -3.022200   0.004473   0.002295 -31.702500   6.340710 -10.137700 -26.393500   0.003244  -0.000000 -18.475300   0.002204  -0.001204 -28.477800   3.195310  -5.867690 -37.960800  -0.003399  -0.001821 -25.281900   0.002223  -0.001219 -28.490300   0.227907  -0.419912 -36.046800   0.001219  -0.001584 -24.007200   0.001968  -0.001044 -34.830500   0.282028  -0.405312 -52.247000   0.001501  -0.012272 -34.796500   0.002098   0.000259   4.514730  -0.769884   6.315960  71.721800   8.361500   1.728740   1.916870  -3.907360   4.600600 -10.975900 -10.004500   3.432200 -51.883600  42.052500  82.495600  21.543300   0.005060  -0.001943   5.771640   0.003828  -0.000115  27.807200   3.967360   7.474260  22.963600  -0.001756   0.003631  16.063300  -0.003699   0.002433  23.622800  -0.642784  -1.469200  23.631000   0.010010  -0.002899  15.738200   0.005952  -0.000442  20.552000  -1.409850  -3.755510  20.598600   0.007602  -0.000731  13.718700   0.009643  -0.010200  26.013800  -1.905970  -3.898880  39.119100   0.012255  -0.000963  26.053300   0.003198  -0.007882   2.628740  10.738100   0.758037   1.222980   0.458580   7.764810  -2.689970  -3.651030   1.062350   0.000000   0.000000  -0.000000   1.520070   4.815190  -1.742730   1.634380   4.830690  -6.517900  -4.387040  -2.149850  -5.218470   0.000000   0.000000   0.000000
